<svg width="33" height="34" viewBox="0 0 33 34" fill="none" xmlns="http://www.w3.org/2000/svg">
<g id="favorite">
<mask id="mask0_370_251" style="mask-type:alpha" maskUnits="userSpaceOnUse" x="0" y="0" width="33" height="34">
<rect id="Bounding box" y="0.5" width="33" height="33" fill="#D9D9D9"/>
</mask>
<g mask="url(#mask0_370_251)">
<path id="favorite_2" d="M16.5 29.375L14.5063 27.5876C12.1917 25.5021 10.2781 23.7032 8.76563 22.1907C7.25313 20.6782 6.05 19.3204 5.15625 18.1172C4.2625 16.9141 3.63802 15.8084 3.28281 14.8C2.9276 13.7917 2.75 12.7605 2.75 11.7063C2.75 9.55213 3.47188 7.75317 4.91563 6.30942C6.35938 4.86567 8.15833 4.1438 10.3125 4.1438C11.5042 4.1438 12.6385 4.39588 13.7156 4.90005C14.7927 5.40422 15.7208 6.11463 16.5 7.0313C17.2792 6.11463 18.2073 5.40422 19.2844 4.90005C20.3615 4.39588 21.4958 4.1438 22.6875 4.1438C24.8417 4.1438 26.6406 4.86567 28.0844 6.30942C29.5281 7.75317 30.25 9.55213 30.25 11.7063C30.25 12.7605 30.0724 13.7917 29.7172 14.8C29.362 15.8084 28.7375 16.9141 27.8438 18.1172C26.95 19.3204 25.7469 20.6782 24.2344 22.1907C22.7219 23.7032 20.8083 25.5021 18.4938 27.5876L16.5 29.375Z" fill="black"/>
</g>
</g>
</svg>
