<svg width="54" height="54" viewBox="0 0 54 54" fill="none" xmlns="http://www.w3.org/2000/svg">
<g id="Duotone/Package">
<rect width="54" height="54" stroke="black"/>
<path id="Vector" opacity="0.2" d="M6.98204 15.7363C6.82919 15.9989 6.74909 16.2974 6.75001 16.6012V37.3996C6.75162 37.7 6.83242 37.9947 6.98426 38.254C7.1361 38.5132 7.35361 38.7278 7.61485 38.8762L26.1774 49.3176C26.4276 49.4606 26.7118 49.5334 27 49.5285L27.1898 27.0004L6.98204 15.7363Z" fill="white"/>
<path id="Vector_2" d="M27.4477 5.33186L27.4476 5.3319L27.455 5.33603L46.0148 15.7759C46.0152 15.7761 46.0156 15.7764 46.0159 15.7766C46.162 15.8598 46.2836 15.9799 46.3686 16.125C46.4535 16.2699 46.4988 16.4346 46.5 16.6025V37.3965C46.4988 37.5645 46.4535 37.7291 46.3686 37.8741C46.2836 38.0191 46.162 38.1393 46.0159 38.2225C46.0155 38.2227 46.0152 38.2229 46.0148 38.2231L27.455 48.663L27.4549 48.663L27.4477 48.6672C27.3116 48.7458 27.1572 48.7872 27 48.7872C26.8428 48.7872 26.6884 48.7458 26.5523 48.6672L26.5524 48.6672L26.545 48.663L7.9852 38.2231C7.98481 38.2229 7.98442 38.2227 7.98402 38.2225C7.83798 38.1393 7.71637 38.0191 7.63141 37.8741C7.54652 37.7291 7.5012 37.5644 7.5 37.3964V16.6026C7.5012 16.4347 7.54652 16.27 7.63141 16.125C7.71637 15.98 7.83797 15.8598 7.98402 15.7766C7.98441 15.7764 7.98481 15.7762 7.9852 15.7759L26.545 5.33603L26.5451 5.33607L26.5523 5.33186C26.6884 5.25328 26.8428 5.21191 27 5.21191C27.1572 5.21191 27.3116 5.25328 27.4477 5.33186Z" stroke="#2DB224" stroke-width="1.5" stroke-linecap="round" stroke-linejoin="round"/>
<path id="Vector_3" d="M37.3359 32.168V21.1992L16.875 9.91406" stroke="#2DB224" stroke-width="1.5" stroke-linecap="round" stroke-linejoin="round"/>
<path id="Vector_4" d="M47.0184 15.7363L27.1902 27.0004L6.98242 15.7363" stroke="#2DB224" stroke-width="1.5" stroke-linecap="round" stroke-linejoin="round"/>
<path id="Vector_5" d="M27.1898 27L27 49.5281" stroke="#2DB224" stroke-width="1.5" stroke-linecap="round" stroke-linejoin="round"/>
</g>
</svg>
