<svg width="54" height="54" viewBox="0 0 54 54" fill="none" xmlns="http://www.w3.org/2000/svg">
<g id="quick_reorder">
<mask id="mask0_180_2964" style="mask-type:alpha" maskUnits="userSpaceOnUse" x="0" y="0" width="54" height="54">
<rect id="Bounding box" width="54" height="54" fill="#D9D9D9"/>
</mask>
<g mask="url(#mask0_180_2964)">
<path id="quick_reorder_2" d="M48.75 15.9175V44.25H3V41.25H13.5H14.25V40.5V36V35.25H13.5H5.25V32.25H13.5H14.25V31.5V27V26.25H13.5H7.6125V23.25H13.5H14.25V22.5V15.8625V15.6969L14.1803 15.5467L10.1065 6.77251L12.8033 5.49902L17.7712 16.069L17.9738 16.5H18.45H44.55H45.7311L45.2288 15.431L41.1596 6.77105L43.8533 5.49902L48.75 15.9175ZM17.25 40.5V41.25H18H45H45.75V40.5V20.25V19.5H45H18H17.25V20.25V40.5ZM36 28.5H27C26.5514 28.5 26.2109 28.3565 25.9272 28.0728C25.6435 27.7891 25.5 27.4486 25.5 27C25.5 26.5514 25.6435 26.2109 25.9272 25.9272C26.2109 25.6435 26.5514 25.5 27 25.5H36C36.4486 25.5 36.7891 25.6435 37.0728 25.9272C37.3565 26.2109 37.5 26.5514 37.5 27C37.5 27.4486 37.3565 27.7891 37.0728 28.0728C36.7891 28.3565 36.4486 28.5 36 28.5Z" fill="#40C545" stroke="#EAF7E9" stroke-width="1.5"/>
</g>
</g>
</svg>
