<svg width="57" height="54" viewBox="0 0 57 54" fill="none" xmlns="http://www.w3.org/2000/svg">
<g id="Regular/Notepad">
<path id="Vector" d="M21.0293 27H35.0485" stroke="#2DB224" stroke-width="1.5" stroke-linecap="round" stroke-linejoin="round"/>
<path id="Vector_2" d="M21.0293 33.75H35.0485" stroke="#2DB224" stroke-width="1.5" stroke-linecap="round" stroke-linejoin="round"/>
<path id="Vector_3" d="M12.2671 8.4375H43.8103C44.2751 8.4375 44.7208 8.61529 45.0495 8.93176C45.3781 9.24823 45.5627 9.67745 45.5627 10.125V42.1875C45.5627 43.5302 45.0088 44.8178 44.0229 45.7672C43.037 46.7166 41.6998 47.25 40.3055 47.25H15.7719C14.3776 47.25 13.0404 46.7166 12.0545 45.7672C11.0685 44.8178 10.5146 43.5302 10.5146 42.1875V10.125C10.5146 9.67745 10.6993 9.24823 11.0279 8.93176C11.3566 8.61529 11.8023 8.4375 12.2671 8.4375V8.4375Z" stroke="#2DB224" stroke-width="1.5" stroke-linecap="round" stroke-linejoin="round"/>
<path id="Vector_4" d="M17.5244 5.0625V11.8125" stroke="#2DB224" stroke-width="1.5" stroke-linecap="round" stroke-linejoin="round"/>
<path id="Vector_5" d="M28.0381 5.0625V11.8125" stroke="#2DB224" stroke-width="1.5" stroke-linecap="round" stroke-linejoin="round"/>
<path id="Vector_6" d="M38.5527 5.0625V11.8125" stroke="#2DB224" stroke-width="1.5" stroke-linecap="round" stroke-linejoin="round"/>
</g>
</svg>
