<svg width="40" height="44" viewBox="0 0 40 44" fill="none" xmlns="http://www.w3.org/2000/svg">
<g id="person_2">
<mask id="mask0_370_254" style="mask-type:alpha" maskUnits="userSpaceOnUse" x="0" y="0" width="40" height="44">
<rect id="Bounding box" y="0.5" width="40" height="43" fill="#D9D9D9"/>
</mask>
<g mask="url(#mask0_370_254)">
<path id="person_2_2" d="M16.292 22.0003C15.292 22.0003 14.4587 21.5972 13.792 20.791C13.1253 19.9847 12.8614 19.0441 13.0003 17.9691L13.542 13.5795C13.7642 11.8774 14.4864 10.4665 15.7087 9.34668C16.9309 8.22689 18.3614 7.66699 20.0003 7.66699C21.6392 7.66699 23.0698 8.22689 24.292 9.34668C25.5142 10.4665 26.2364 11.8774 26.4587 13.5795L27.0003 17.9691C27.1392 19.0441 26.8753 19.9847 26.2087 20.791C25.542 21.5972 24.7087 22.0003 23.7087 22.0003H16.292ZM6.66699 36.3337V31.317C6.66699 30.3017 6.91005 29.3686 7.39616 28.5175C7.88227 27.6665 8.5281 27.017 9.33366 26.5691C11.0559 25.6434 12.8059 24.9491 14.5837 24.4863C16.3614 24.0234 18.167 23.792 20.0003 23.792C21.8337 23.792 23.6392 24.0234 25.417 24.4863C27.1948 24.9491 28.9448 25.6434 30.667 26.5691C31.4725 27.017 32.1184 27.6665 32.6045 28.5175C33.0906 29.3686 33.3337 30.3017 33.3337 31.317V36.3337H6.66699Z" fill="black"/>
</g>
</g>
</svg>
