<svg width="35" height="34" viewBox="0 0 35 34" fill="none" xmlns="http://www.w3.org/2000/svg">
<g id="shopping_bag">
<mask id="mask0_370_248" style="mask-type:alpha" maskUnits="userSpaceOnUse" x="0" y="0" width="35" height="34">
<rect id="Bounding box" width="35" height="34" fill="#D9D9D9"/>
</mask>
<g mask="url(#mask0_370_248)">
<path id="shopping_bag_2" d="M8.75065 31.1663C7.94857 31.1663 7.26194 30.8889 6.69076 30.334C6.11957 29.7792 5.83398 29.1122 5.83398 28.333V11.333C5.83398 10.5538 6.11957 9.88683 6.69076 9.33197C7.26194 8.7771 7.94857 8.49967 8.75065 8.49967H11.6673C11.6673 6.94134 12.2385 5.60731 13.3809 4.49759C14.5232 3.38787 15.8965 2.83301 17.5007 2.83301C19.1048 2.83301 20.4781 3.38787 21.6204 4.49759C22.7628 5.60731 23.334 6.94134 23.334 8.49967H26.2507C27.0527 8.49967 27.7394 8.7771 28.3105 9.33197C28.8817 9.88683 29.1673 10.5538 29.1673 11.333V28.333C29.1673 29.1122 28.8817 29.7792 28.3105 30.334C27.7394 30.8889 27.0527 31.1663 26.2507 31.1663H8.75065ZM14.584 8.49967H20.4173C20.4173 7.72051 20.1317 7.05349 19.5605 6.49863C18.9894 5.94377 18.3027 5.66634 17.5007 5.66634C16.6986 5.66634 16.0119 5.94377 15.4408 6.49863C14.8696 7.05349 14.584 7.72051 14.584 8.49967ZM21.8757 15.583C22.2888 15.583 22.6352 15.4472 22.9147 15.1757C23.1942 14.9042 23.334 14.5677 23.334 14.1663V11.333H20.4173V14.1663C20.4173 14.5677 20.5571 14.9042 20.8366 15.1757C21.1161 15.4472 21.4625 15.583 21.8757 15.583ZM13.1257 15.583C13.5388 15.583 13.8852 15.4472 14.1647 15.1757C14.4442 14.9042 14.584 14.5677 14.584 14.1663V11.333H11.6673V14.1663C11.6673 14.5677 11.8071 14.9042 12.0866 15.1757C12.3661 15.4472 12.7125 15.583 13.1257 15.583Z" fill="black"/>
</g>
</g>
</svg>
