<svg xmlns="http://www.w3.org/2000/svg" width="33" height="33" viewBox="0 0 33 33" fill="none">
<path opacity="0.2" d="M25.5 19.1596L20.9 23.7596C20.7746 23.8769 20.6227 23.962 20.4573 24.0077C20.2918 24.0534 20.1178 24.0584 19.95 24.0221L12.7 22.2096C12.5676 22.1727 12.4442 22.1089 12.3375 22.0221L5.5 16.6846L9.575 9.02214L15.9875 7.14714C16.2154 7.0818 16.459 7.09952 16.675 7.19714L21 9.15964H18.4125C18.2826 9.15919 18.154 9.18435 18.0339 9.23368C17.9138 9.28301 17.8045 9.35555 17.7125 9.44714L12.8125 14.3346C12.7125 14.4374 12.6354 14.5601 12.5863 14.6949C12.5373 14.8296 12.5174 14.9732 12.5281 15.1162C12.5387 15.2592 12.5796 15.3983 12.648 15.5243C12.7164 15.6503 12.8109 15.7604 12.925 15.8471L13.6 16.3596C14.2932 16.877 15.135 17.1565 16 17.1565C16.865 17.1565 17.7068 16.877 18.4 16.3596L20 15.1596L25.5 19.1596Z" fill="#00B207"/>
<path d="M30.5875 15.272L27.5 16.8095L23.5 9.15946L26.625 7.59696C26.8572 7.47859 27.1269 7.45683 27.3751 7.53645C27.6233 7.61606 27.83 7.79059 27.95 8.02196L31.025 13.9095C31.0874 14.0273 31.1255 14.1565 31.1372 14.2893C31.1489 14.4221 31.134 14.5559 31.0932 14.6829C31.0525 14.8098 30.9867 14.9273 30.8999 15.0285C30.813 15.1297 30.7068 15.2124 30.5875 15.272V15.272Z" stroke="#00B207" stroke-width="2" stroke-linecap="round" stroke-linejoin="round"/>
<path d="M5.49979 16.6844L2.41229 15.1344C2.29341 15.0761 2.18746 14.9945 2.10073 14.8945C2.01401 14.7945 1.94829 14.678 1.90747 14.5521C1.86666 14.4261 1.85159 14.2933 1.86315 14.1614C1.87471 14.0295 1.91268 13.9013 1.97479 13.7844L5.04979 7.89686C5.17008 7.66565 5.37588 7.49054 5.62337 7.40882C5.87086 7.32711 6.14047 7.34524 6.37479 7.45936L9.49979 9.02187L5.49979 16.6844Z" stroke="#00B207" stroke-width="2" stroke-linecap="round" stroke-linejoin="round"/>
<path d="M27.5 16.8096L25.5 19.1596L20.9 23.7596C20.7746 23.8768 20.6227 23.9619 20.4573 24.0076C20.2918 24.0534 20.1178 24.0583 19.95 24.0221L12.7 22.2096C12.5676 22.1727 12.4442 22.1088 12.3375 22.0221L5.5 16.6846" stroke="#00B207" stroke-width="2" stroke-linecap="round" stroke-linejoin="round"/>
<path d="M25.5001 19.1592L20.0001 15.1592L18.4001 16.3592C17.7069 16.8766 16.8651 17.1561 16.0001 17.1561C15.1351 17.1561 14.2933 16.8766 13.6001 16.3592L12.9251 15.8467C12.811 15.7599 12.7166 15.6499 12.6481 15.5239C12.5797 15.3979 12.5388 15.2588 12.5282 15.1158C12.5175 14.9728 12.5374 14.8292 12.5864 14.6944C12.6355 14.5597 12.7126 14.4369 12.8126 14.3342L17.7126 9.44669C17.8047 9.35509 17.9139 9.28256 18.034 9.23322C18.1541 9.18389 18.2828 9.15873 18.4126 9.15919H23.5001" stroke="#00B207" stroke-width="2" stroke-linecap="round" stroke-linejoin="round"/>
<path d="M9.5752 9.02214L15.9877 7.14714C16.2155 7.0818 16.4592 7.09952 16.6752 7.19714L21.0002 9.15964" stroke="#00B207" stroke-width="2" stroke-linecap="round" stroke-linejoin="round"/>
<path d="M14.5 26.6594L10.7375 25.7094C10.5842 25.6747 10.4422 25.6016 10.325 25.4969L7.5 23.0469" stroke="#00B207" stroke-width="2" stroke-linecap="round" stroke-linejoin="round"/>
</svg>