<svg xmlns="http://www.w3.org/2000/svg" width="33" height="33" viewBox="0 0 33 33" fill="none">
<path opacity="0.2" d="M4.6375 9.37207C4.54693 9.52764 4.49946 9.70455 4.5 9.88457V22.2096C4.50096 22.3876 4.54884 22.5622 4.63882 22.7159C4.7288 22.8695 4.85769 22.9967 5.0125 23.0846L16.0125 29.2721C16.1608 29.3568 16.3292 29.4 16.5 29.3971L16.6125 16.0471L4.6375 9.37207Z" fill="#60CE64"/>
<path d="M28.5 22.2095V9.88453C28.499 9.7065 28.4512 9.53187 28.3612 9.37825C28.2712 9.22463 28.1423 9.09745 27.9875 9.00953L16.9875 2.82203C16.8393 2.73646 16.6711 2.69141 16.5 2.69141C16.3289 2.69141 16.1607 2.73646 16.0125 2.82203L5.0125 9.00953C4.85769 9.09745 4.72879 9.22463 4.63882 9.37825C4.54884 9.53187 4.50096 9.7065 4.5 9.88453V22.2095C4.50096 22.3876 4.54884 22.5622 4.63882 22.7158C4.72879 22.8694 4.85769 22.9966 5.0125 23.0845L16.0125 29.272C16.1607 29.3576 16.3289 29.4027 16.5 29.4027C16.6711 29.4027 16.8393 29.3576 16.9875 29.272L27.9875 23.0845C28.1423 22.9966 28.2712 22.8694 28.3612 22.7158C28.4512 22.5622 28.499 22.3876 28.5 22.2095V22.2095Z" stroke="#60CE64" stroke-width="2" stroke-linecap="round" stroke-linejoin="round"/>
<path d="M22.625 19.1094V12.6094L10.5 5.92188" stroke="#60CE64" stroke-width="2" stroke-linecap="round" stroke-linejoin="round"/>
<path d="M28.3627 9.37207L16.6127 16.0471L4.6377 9.37207" stroke="#60CE64" stroke-width="2" stroke-linecap="round" stroke-linejoin="round"/>
<path d="M16.6125 16.0469L16.5 29.3969" stroke="#60CE64" stroke-width="2" stroke-linecap="round" stroke-linejoin="round"/>
</svg>