<svg width="1366" height="778" viewBox="0 0 1366 778" fill="none" xmlns="http://www.w3.org/2000/svg">
<circle opacity="0.5" r="174" stroke="#347809" stroke-width="48"/>
<circle opacity="0.5" cx="1432" cy="112" r="106" stroke="#347809" stroke-width="48"/>
<g opacity="0.5" clip-path="url(#clip0_682_4791)">
<path d="M92.9778 405.956C94.6224 405.956 95.9556 404.622 95.9556 402.978C95.9556 401.333 94.6224 400 92.9778 400C91.3332 400 90 401.333 90 402.978C90 404.622 91.3332 405.956 92.9778 405.956Z" fill="#1E1E1E"/>
<path d="M92.9778 431.911C94.6224 431.911 95.9556 430.578 95.9556 428.933C95.9556 427.289 94.6224 425.956 92.9778 425.956C91.3332 425.956 90 427.289 90 428.933C90 430.578 91.3332 431.911 92.9778 431.911Z" fill="#1E1E1E"/>
<path d="M92.9778 483.822C94.6224 483.822 95.9556 482.489 95.9556 480.844C95.9556 479.2 94.6224 477.867 92.9778 477.867C91.3332 477.867 90 479.2 90 480.844C90 482.489 91.3332 483.822 92.9778 483.822Z" fill="#1E1E1E"/>
<path d="M92.9778 535.734C94.6224 535.734 95.9556 534.401 95.9556 532.756C95.9556 531.112 94.6224 529.778 92.9778 529.778C91.3332 529.778 90 531.112 90 532.756C90 534.401 91.3332 535.734 92.9778 535.734Z" fill="#1E1E1E"/>
<path d="M92.9778 561.689C94.6224 561.689 95.9556 560.356 95.9556 558.711C95.9556 557.067 94.6224 555.733 92.9778 555.733C91.3332 555.733 90 557.067 90 558.711C90 560.356 91.3332 561.689 92.9778 561.689Z" fill="#1E1E1E"/>
<path d="M92.9778 457.867C94.6224 457.867 95.9556 456.534 95.9556 454.889C95.9556 453.244 94.6224 451.911 92.9778 451.911C91.3332 451.911 90 453.244 90 454.889C90 456.534 91.3332 457.867 92.9778 457.867Z" fill="#1E1E1E"/>
<path d="M92.9778 509.778C94.6224 509.778 95.9556 508.445 95.9556 506.8C95.9556 505.155 94.6224 503.822 92.9778 503.822C91.3332 503.822 90 505.155 90 506.8C90 508.445 91.3332 509.778 92.9778 509.778Z" fill="#1E1E1E"/>
<path d="M118.933 405.956C120.578 405.956 121.911 404.622 121.911 402.978C121.911 401.333 120.578 400 118.933 400C117.289 400 115.956 401.333 115.956 402.978C115.956 404.622 117.289 405.956 118.933 405.956Z" fill="#1E1E1E"/>
<path d="M118.933 431.911C120.578 431.911 121.911 430.578 121.911 428.933C121.911 427.289 120.578 425.956 118.933 425.956C117.289 425.956 115.956 427.289 115.956 428.933C115.956 430.578 117.289 431.911 118.933 431.911Z" fill="#1E1E1E"/>
<path d="M118.933 483.822C120.578 483.822 121.911 482.489 121.911 480.844C121.911 479.2 120.578 477.867 118.933 477.867C117.289 477.867 115.956 479.2 115.956 480.844C115.956 482.489 117.289 483.822 118.933 483.822Z" fill="#1E1E1E"/>
<path d="M118.933 535.734C120.578 535.734 121.911 534.401 121.911 532.756C121.911 531.112 120.578 529.778 118.933 529.778C117.289 529.778 115.956 531.112 115.956 532.756C115.956 534.401 117.289 535.734 118.933 535.734Z" fill="#1E1E1E"/>
<path d="M118.933 561.689C120.578 561.689 121.911 560.356 121.911 558.711C121.911 557.067 120.578 555.733 118.933 555.733C117.289 555.733 115.956 557.067 115.956 558.711C115.956 560.356 117.289 561.689 118.933 561.689Z" fill="#1E1E1E"/>
<path d="M118.933 457.867C120.578 457.867 121.911 456.534 121.911 454.889C121.911 453.244 120.578 451.911 118.933 451.911C117.289 451.911 115.956 453.244 115.956 454.889C115.956 456.534 117.289 457.867 118.933 457.867Z" fill="#1E1E1E"/>
<path d="M118.933 509.778C120.578 509.778 121.911 508.445 121.911 506.8C121.911 505.155 120.578 503.822 118.933 503.822C117.289 503.822 115.956 505.155 115.956 506.8C115.956 508.445 117.289 509.778 118.933 509.778Z" fill="#1E1E1E"/>
<path d="M144.889 405.956C146.534 405.956 147.867 404.622 147.867 402.978C147.867 401.333 146.534 400 144.889 400C143.244 400 141.911 401.333 141.911 402.978C141.911 404.622 143.244 405.956 144.889 405.956Z" fill="#1E1E1E"/>
<path d="M144.889 431.911C146.534 431.911 147.867 430.578 147.867 428.933C147.867 427.289 146.534 425.956 144.889 425.956C143.244 425.956 141.911 427.289 141.911 428.933C141.911 430.578 143.244 431.911 144.889 431.911Z" fill="#1E1E1E"/>
<path d="M144.889 483.822C146.534 483.822 147.867 482.489 147.867 480.844C147.867 479.2 146.534 477.867 144.889 477.867C143.244 477.867 141.911 479.2 141.911 480.844C141.911 482.489 143.244 483.822 144.889 483.822Z" fill="#1E1E1E"/>
<path d="M144.889 535.734C146.534 535.734 147.867 534.401 147.867 532.756C147.867 531.112 146.534 529.778 144.889 529.778C143.244 529.778 141.911 531.112 141.911 532.756C141.911 534.401 143.244 535.734 144.889 535.734Z" fill="#1E1E1E"/>
<path d="M144.889 561.689C146.534 561.689 147.867 560.356 147.867 558.711C147.867 557.067 146.534 555.733 144.889 555.733C143.244 555.733 141.911 557.067 141.911 558.711C141.911 560.356 143.244 561.689 144.889 561.689Z" fill="#1E1E1E"/>
<path d="M144.889 457.867C146.534 457.867 147.867 456.534 147.867 454.889C147.867 453.244 146.534 451.911 144.889 451.911C143.244 451.911 141.911 453.244 141.911 454.889C141.911 456.534 143.244 457.867 144.889 457.867Z" fill="#1E1E1E"/>
<path d="M144.889 509.778C146.534 509.778 147.867 508.445 147.867 506.8C147.867 505.155 146.534 503.822 144.889 503.822C143.244 503.822 141.911 505.155 141.911 506.8C141.911 508.445 143.244 509.778 144.889 509.778Z" fill="#1E1E1E"/>
<path d="M170.844 405.956C172.489 405.956 173.822 404.622 173.822 402.978C173.822 401.333 172.489 400 170.844 400C169.2 400 167.867 401.333 167.867 402.978C167.867 404.622 169.2 405.956 170.844 405.956Z" fill="#1E1E1E"/>
<path d="M170.844 431.911C172.489 431.911 173.822 430.578 173.822 428.933C173.822 427.289 172.489 425.956 170.844 425.956C169.2 425.956 167.867 427.289 167.867 428.933C167.867 430.578 169.2 431.911 170.844 431.911Z" fill="#1E1E1E"/>
<path d="M170.844 483.822C172.489 483.822 173.822 482.489 173.822 480.844C173.822 479.2 172.489 477.867 170.844 477.867C169.2 477.867 167.867 479.2 167.867 480.844C167.867 482.489 169.2 483.822 170.844 483.822Z" fill="#1E1E1E"/>
<path d="M170.844 535.734C172.489 535.734 173.822 534.401 173.822 532.756C173.822 531.112 172.489 529.778 170.844 529.778C169.2 529.778 167.867 531.112 167.867 532.756C167.867 534.401 169.2 535.734 170.844 535.734Z" fill="#1E1E1E"/>
<path d="M170.844 561.689C172.489 561.689 173.822 560.356 173.822 558.711C173.822 557.067 172.489 555.733 170.844 555.733C169.2 555.733 167.867 557.067 167.867 558.711C167.867 560.356 169.2 561.689 170.844 561.689Z" fill="#1E1E1E"/>
<path d="M170.844 457.867C172.489 457.867 173.822 456.534 173.822 454.889C173.822 453.244 172.489 451.911 170.844 451.911C169.2 451.911 167.867 453.244 167.867 454.889C167.867 456.534 169.2 457.867 170.844 457.867Z" fill="#1E1E1E"/>
<path d="M170.844 509.778C172.489 509.778 173.822 508.445 173.822 506.8C173.822 505.155 172.489 503.822 170.844 503.822C169.2 503.822 167.867 505.155 167.867 506.8C167.867 508.445 169.2 509.778 170.844 509.778Z" fill="#1E1E1E"/>
<path d="M196.8 405.956C198.445 405.956 199.778 404.622 199.778 402.978C199.778 401.333 198.445 400 196.8 400C195.155 400 193.822 401.333 193.822 402.978C193.822 404.622 195.155 405.956 196.8 405.956Z" fill="#1E1E1E"/>
<path d="M196.8 431.911C198.445 431.911 199.778 430.578 199.778 428.933C199.778 427.289 198.445 425.956 196.8 425.956C195.155 425.956 193.822 427.289 193.822 428.933C193.822 430.578 195.155 431.911 196.8 431.911Z" fill="#1E1E1E"/>
<path d="M196.8 483.822C198.445 483.822 199.778 482.489 199.778 480.844C199.778 479.2 198.445 477.867 196.8 477.867C195.155 477.867 193.822 479.2 193.822 480.844C193.822 482.489 195.155 483.822 196.8 483.822Z" fill="#1E1E1E"/>
<path d="M196.8 535.734C198.445 535.734 199.778 534.401 199.778 532.756C199.778 531.112 198.445 529.778 196.8 529.778C195.155 529.778 193.822 531.112 193.822 532.756C193.822 534.401 195.155 535.734 196.8 535.734Z" fill="#1E1E1E"/>
<path d="M196.8 561.689C198.445 561.689 199.778 560.356 199.778 558.711C199.778 557.067 198.445 555.733 196.8 555.733C195.155 555.733 193.822 557.067 193.822 558.711C193.822 560.356 195.155 561.689 196.8 561.689Z" fill="#1E1E1E"/>
<path d="M196.8 457.867C198.445 457.867 199.778 456.534 199.778 454.889C199.778 453.244 198.445 451.911 196.8 451.911C195.155 451.911 193.822 453.244 193.822 454.889C193.822 456.534 195.155 457.867 196.8 457.867Z" fill="#1E1E1E"/>
<path d="M196.8 509.778C198.445 509.778 199.778 508.445 199.778 506.8C199.778 505.155 198.445 503.822 196.8 503.822C195.155 503.822 193.822 505.155 193.822 506.8C193.822 508.445 195.155 509.778 196.8 509.778Z" fill="#1E1E1E"/>
<path d="M222.756 405.956C224.401 405.956 225.734 404.622 225.734 402.978C225.734 401.333 224.401 400 222.756 400C221.112 400 219.778 401.333 219.778 402.978C219.778 404.622 221.112 405.956 222.756 405.956Z" fill="#1E1E1E"/>
<path d="M222.756 431.911C224.401 431.911 225.734 430.578 225.734 428.933C225.734 427.289 224.401 425.956 222.756 425.956C221.112 425.956 219.778 427.289 219.778 428.933C219.778 430.578 221.112 431.911 222.756 431.911Z" fill="#1E1E1E"/>
<path d="M222.756 483.822C224.401 483.822 225.734 482.489 225.734 480.844C225.734 479.2 224.401 477.867 222.756 477.867C221.112 477.867 219.778 479.2 219.778 480.844C219.778 482.489 221.112 483.822 222.756 483.822Z" fill="#1E1E1E"/>
<path d="M222.756 535.734C224.401 535.734 225.734 534.401 225.734 532.756C225.734 531.112 224.401 529.778 222.756 529.778C221.112 529.778 219.778 531.112 219.778 532.756C219.778 534.401 221.112 535.734 222.756 535.734Z" fill="#1E1E1E"/>
<path d="M222.756 561.689C224.401 561.689 225.734 560.356 225.734 558.711C225.734 557.067 224.401 555.733 222.756 555.733C221.112 555.733 219.778 557.067 219.778 558.711C219.778 560.356 221.112 561.689 222.756 561.689Z" fill="#1E1E1E"/>
<path d="M222.756 457.867C224.401 457.867 225.734 456.534 225.734 454.889C225.734 453.244 224.401 451.911 222.756 451.911C221.112 451.911 219.778 453.244 219.778 454.889C219.778 456.534 221.112 457.867 222.756 457.867Z" fill="#1E1E1E"/>
<path d="M222.756 509.778C224.401 509.778 225.734 508.445 225.734 506.8C225.734 505.155 224.401 503.822 222.756 503.822C221.112 503.822 219.778 505.155 219.778 506.8C219.778 508.445 221.112 509.778 222.756 509.778Z" fill="#1E1E1E"/>
<path d="M248.711 405.956C250.356 405.956 251.689 404.622 251.689 402.978C251.689 401.333 250.356 400 248.711 400C247.067 400 245.733 401.333 245.733 402.978C245.733 404.622 247.067 405.956 248.711 405.956Z" fill="#1E1E1E"/>
<path d="M248.711 431.911C250.356 431.911 251.689 430.578 251.689 428.933C251.689 427.289 250.356 425.956 248.711 425.956C247.067 425.956 245.733 427.289 245.733 428.933C245.733 430.578 247.067 431.911 248.711 431.911Z" fill="#1E1E1E"/>
<path d="M248.711 483.822C250.356 483.822 251.689 482.489 251.689 480.844C251.689 479.2 250.356 477.867 248.711 477.867C247.067 477.867 245.733 479.2 245.733 480.844C245.733 482.489 247.067 483.822 248.711 483.822Z" fill="#1E1E1E"/>
<path d="M248.711 535.734C250.356 535.734 251.689 534.401 251.689 532.756C251.689 531.112 250.356 529.778 248.711 529.778C247.067 529.778 245.733 531.112 245.733 532.756C245.733 534.401 247.067 535.734 248.711 535.734Z" fill="#1E1E1E"/>
<path d="M248.711 561.689C250.356 561.689 251.689 560.356 251.689 558.711C251.689 557.067 250.356 555.733 248.711 555.733C247.067 555.733 245.733 557.067 245.733 558.711C245.733 560.356 247.067 561.689 248.711 561.689Z" fill="#1E1E1E"/>
<path d="M248.711 457.867C250.356 457.867 251.689 456.534 251.689 454.889C251.689 453.244 250.356 451.911 248.711 451.911C247.067 451.911 245.733 453.244 245.733 454.889C245.733 456.534 247.067 457.867 248.711 457.867Z" fill="#1E1E1E"/>
<path d="M248.711 509.778C250.356 509.778 251.689 508.445 251.689 506.8C251.689 505.155 250.356 503.822 248.711 503.822C247.067 503.822 245.733 505.155 245.733 506.8C245.733 508.445 247.067 509.778 248.711 509.778Z" fill="#1E1E1E"/>
</g>
<g opacity="0.5" clip-path="url(#clip1_682_4791)">
<path d="M1243.98 621.956C1245.62 621.956 1246.96 620.622 1246.96 618.978C1246.96 617.333 1245.62 616 1243.98 616C1242.33 616 1241 617.333 1241 618.978C1241 620.622 1242.33 621.956 1243.98 621.956Z" fill="#1E1E1E"/>
<path d="M1243.98 647.911C1245.62 647.911 1246.96 646.578 1246.96 644.933C1246.96 643.289 1245.62 641.956 1243.98 641.956C1242.33 641.956 1241 643.289 1241 644.933C1241 646.578 1242.33 647.911 1243.98 647.911Z" fill="#1E1E1E"/>
<path d="M1243.98 699.822C1245.62 699.822 1246.96 698.489 1246.96 696.844C1246.96 695.2 1245.62 693.867 1243.98 693.867C1242.33 693.867 1241 695.2 1241 696.844C1241 698.489 1242.33 699.822 1243.98 699.822Z" fill="#1E1E1E"/>
<path d="M1243.98 751.734C1245.62 751.734 1246.96 750.401 1246.96 748.756C1246.96 747.112 1245.62 745.778 1243.98 745.778C1242.33 745.778 1241 747.112 1241 748.756C1241 750.401 1242.33 751.734 1243.98 751.734Z" fill="#1E1E1E"/>
<path d="M1243.98 777.689C1245.62 777.689 1246.96 776.356 1246.96 774.711C1246.96 773.067 1245.62 771.733 1243.98 771.733C1242.33 771.733 1241 773.067 1241 774.711C1241 776.356 1242.33 777.689 1243.98 777.689Z" fill="#1E1E1E"/>
<path d="M1243.98 673.867C1245.62 673.867 1246.96 672.534 1246.96 670.889C1246.96 669.244 1245.62 667.911 1243.98 667.911C1242.33 667.911 1241 669.244 1241 670.889C1241 672.534 1242.33 673.867 1243.98 673.867Z" fill="#1E1E1E"/>
<path d="M1243.98 725.778C1245.62 725.778 1246.96 724.445 1246.96 722.8C1246.96 721.155 1245.62 719.822 1243.98 719.822C1242.33 719.822 1241 721.155 1241 722.8C1241 724.445 1242.33 725.778 1243.98 725.778Z" fill="#1E1E1E"/>
<path d="M1269.93 621.956C1271.58 621.956 1272.91 620.622 1272.91 618.978C1272.91 617.333 1271.58 616 1269.93 616C1268.29 616 1266.96 617.333 1266.96 618.978C1266.96 620.622 1268.29 621.956 1269.93 621.956Z" fill="#1E1E1E"/>
<path d="M1269.93 647.911C1271.58 647.911 1272.91 646.578 1272.91 644.933C1272.91 643.289 1271.58 641.956 1269.93 641.956C1268.29 641.956 1266.96 643.289 1266.96 644.933C1266.96 646.578 1268.29 647.911 1269.93 647.911Z" fill="#1E1E1E"/>
<path d="M1269.93 699.822C1271.58 699.822 1272.91 698.489 1272.91 696.844C1272.91 695.2 1271.58 693.867 1269.93 693.867C1268.29 693.867 1266.96 695.2 1266.96 696.844C1266.96 698.489 1268.29 699.822 1269.93 699.822Z" fill="#1E1E1E"/>
<path d="M1269.93 751.734C1271.58 751.734 1272.91 750.401 1272.91 748.756C1272.91 747.112 1271.58 745.778 1269.93 745.778C1268.29 745.778 1266.96 747.112 1266.96 748.756C1266.96 750.401 1268.29 751.734 1269.93 751.734Z" fill="#1E1E1E"/>
<path d="M1269.93 777.689C1271.58 777.689 1272.91 776.356 1272.91 774.711C1272.91 773.067 1271.58 771.733 1269.93 771.733C1268.29 771.733 1266.96 773.067 1266.96 774.711C1266.96 776.356 1268.29 777.689 1269.93 777.689Z" fill="#1E1E1E"/>
<path d="M1269.93 673.867C1271.58 673.867 1272.91 672.534 1272.91 670.889C1272.91 669.244 1271.58 667.911 1269.93 667.911C1268.29 667.911 1266.96 669.244 1266.96 670.889C1266.96 672.534 1268.29 673.867 1269.93 673.867Z" fill="#1E1E1E"/>
<path d="M1269.93 725.778C1271.58 725.778 1272.91 724.445 1272.91 722.8C1272.91 721.155 1271.58 719.822 1269.93 719.822C1268.29 719.822 1266.96 721.155 1266.96 722.8C1266.96 724.445 1268.29 725.778 1269.93 725.778Z" fill="#1E1E1E"/>
<path d="M1295.89 621.956C1297.53 621.956 1298.87 620.622 1298.87 618.978C1298.87 617.333 1297.53 616 1295.89 616C1294.24 616 1292.91 617.333 1292.91 618.978C1292.91 620.622 1294.24 621.956 1295.89 621.956Z" fill="#1E1E1E"/>
<path d="M1295.89 647.911C1297.53 647.911 1298.87 646.578 1298.87 644.933C1298.87 643.289 1297.53 641.956 1295.89 641.956C1294.24 641.956 1292.91 643.289 1292.91 644.933C1292.91 646.578 1294.24 647.911 1295.89 647.911Z" fill="#1E1E1E"/>
<path d="M1295.89 699.822C1297.53 699.822 1298.87 698.489 1298.87 696.844C1298.87 695.2 1297.53 693.867 1295.89 693.867C1294.24 693.867 1292.91 695.2 1292.91 696.844C1292.91 698.489 1294.24 699.822 1295.89 699.822Z" fill="#1E1E1E"/>
<path d="M1295.89 751.734C1297.53 751.734 1298.87 750.401 1298.87 748.756C1298.87 747.112 1297.53 745.778 1295.89 745.778C1294.24 745.778 1292.91 747.112 1292.91 748.756C1292.91 750.401 1294.24 751.734 1295.89 751.734Z" fill="#1E1E1E"/>
<path d="M1295.89 777.689C1297.53 777.689 1298.87 776.356 1298.87 774.711C1298.87 773.067 1297.53 771.733 1295.89 771.733C1294.24 771.733 1292.91 773.067 1292.91 774.711C1292.91 776.356 1294.24 777.689 1295.89 777.689Z" fill="#1E1E1E"/>
<path d="M1295.89 673.867C1297.53 673.867 1298.87 672.534 1298.87 670.889C1298.87 669.244 1297.53 667.911 1295.89 667.911C1294.24 667.911 1292.91 669.244 1292.91 670.889C1292.91 672.534 1294.24 673.867 1295.89 673.867Z" fill="#1E1E1E"/>
<path d="M1295.89 725.778C1297.53 725.778 1298.87 724.445 1298.87 722.8C1298.87 721.155 1297.53 719.822 1295.89 719.822C1294.24 719.822 1292.91 721.155 1292.91 722.8C1292.91 724.445 1294.24 725.778 1295.89 725.778Z" fill="#1E1E1E"/>
<path d="M1321.84 621.956C1323.49 621.956 1324.82 620.622 1324.82 618.978C1324.82 617.333 1323.49 616 1321.84 616C1320.2 616 1318.87 617.333 1318.87 618.978C1318.87 620.622 1320.2 621.956 1321.84 621.956Z" fill="#1E1E1E"/>
<path d="M1321.84 647.911C1323.49 647.911 1324.82 646.578 1324.82 644.933C1324.82 643.289 1323.49 641.956 1321.84 641.956C1320.2 641.956 1318.87 643.289 1318.87 644.933C1318.87 646.578 1320.2 647.911 1321.84 647.911Z" fill="#1E1E1E"/>
<path d="M1321.84 699.822C1323.49 699.822 1324.82 698.489 1324.82 696.844C1324.82 695.2 1323.49 693.867 1321.84 693.867C1320.2 693.867 1318.87 695.2 1318.87 696.844C1318.87 698.489 1320.2 699.822 1321.84 699.822Z" fill="#1E1E1E"/>
<path d="M1321.84 751.734C1323.49 751.734 1324.82 750.401 1324.82 748.756C1324.82 747.112 1323.49 745.778 1321.84 745.778C1320.2 745.778 1318.87 747.112 1318.87 748.756C1318.87 750.401 1320.2 751.734 1321.84 751.734Z" fill="#1E1E1E"/>
<path d="M1321.84 777.689C1323.49 777.689 1324.82 776.356 1324.82 774.711C1324.82 773.067 1323.49 771.733 1321.84 771.733C1320.2 771.733 1318.87 773.067 1318.87 774.711C1318.87 776.356 1320.2 777.689 1321.84 777.689Z" fill="#1E1E1E"/>
<path d="M1321.84 673.867C1323.49 673.867 1324.82 672.534 1324.82 670.889C1324.82 669.244 1323.49 667.911 1321.84 667.911C1320.2 667.911 1318.87 669.244 1318.87 670.889C1318.87 672.534 1320.2 673.867 1321.84 673.867Z" fill="#1E1E1E"/>
<path d="M1321.84 725.778C1323.49 725.778 1324.82 724.445 1324.82 722.8C1324.82 721.155 1323.49 719.822 1321.84 719.822C1320.2 719.822 1318.87 721.155 1318.87 722.8C1318.87 724.445 1320.2 725.778 1321.84 725.778Z" fill="#1E1E1E"/>
<path d="M1347.8 621.956C1349.44 621.956 1350.78 620.622 1350.78 618.978C1350.78 617.333 1349.44 616 1347.8 616C1346.16 616 1344.82 617.333 1344.82 618.978C1344.82 620.622 1346.16 621.956 1347.8 621.956Z" fill="#1E1E1E"/>
<path d="M1347.8 647.911C1349.44 647.911 1350.78 646.578 1350.78 644.933C1350.78 643.289 1349.44 641.956 1347.8 641.956C1346.16 641.956 1344.82 643.289 1344.82 644.933C1344.82 646.578 1346.16 647.911 1347.8 647.911Z" fill="#1E1E1E"/>
<path d="M1347.8 699.822C1349.44 699.822 1350.78 698.489 1350.78 696.844C1350.78 695.2 1349.44 693.867 1347.8 693.867C1346.16 693.867 1344.82 695.2 1344.82 696.844C1344.82 698.489 1346.16 699.822 1347.8 699.822Z" fill="#1E1E1E"/>
<path d="M1347.8 751.734C1349.44 751.734 1350.78 750.401 1350.78 748.756C1350.78 747.112 1349.44 745.778 1347.8 745.778C1346.16 745.778 1344.82 747.112 1344.82 748.756C1344.82 750.401 1346.16 751.734 1347.8 751.734Z" fill="#1E1E1E"/>
<path d="M1347.8 777.689C1349.44 777.689 1350.78 776.356 1350.78 774.711C1350.78 773.067 1349.44 771.733 1347.8 771.733C1346.16 771.733 1344.82 773.067 1344.82 774.711C1344.82 776.356 1346.16 777.689 1347.8 777.689Z" fill="#1E1E1E"/>
<path d="M1347.8 673.867C1349.44 673.867 1350.78 672.534 1350.78 670.889C1350.78 669.244 1349.44 667.911 1347.8 667.911C1346.16 667.911 1344.82 669.244 1344.82 670.889C1344.82 672.534 1346.16 673.867 1347.8 673.867Z" fill="#1E1E1E"/>
<path d="M1347.8 725.778C1349.44 725.778 1350.78 724.445 1350.78 722.8C1350.78 721.155 1349.44 719.822 1347.8 719.822C1346.16 719.822 1344.82 721.155 1344.82 722.8C1344.82 724.445 1346.16 725.778 1347.8 725.778Z" fill="#1E1E1E"/>
</g>
<defs>
<clipPath id="clip0_682_4791">
<rect width="162" height="162" fill="white" transform="translate(90 400)"/>
</clipPath>
<clipPath id="clip1_682_4791">
<rect width="162" height="162" fill="white" transform="translate(1241 616)"/>
</clipPath>
</defs>
</svg>
