<svg width="25" height="25" viewBox="0 0 25 25" fill="none" xmlns="http://www.w3.org/2000/svg">
<path opacity="0.5" d="M17.2585 12.5L24.3608 19.6023C24.7869 20.0284 25 20.5966 25 21.1648C25 21.804 24.7869 22.3722 24.3608 22.7983L22.7983 24.3608C22.3011 24.7869 21.733 25 21.1648 25C20.5256 25 20.0284 24.7869 19.6023 24.3608L12.5 17.2585L5.39773 24.3608C4.97159 24.7869 4.40341 25 3.83523 25C3.19602 25 2.62784 24.7869 2.2017 24.3608L0.639205 22.7983C0.213068 22.3722 0 21.804 0 21.1648C0 20.5966 0.213068 20.0284 0.639205 19.6023L7.74148 12.5L0.639205 5.39773C0.213068 4.97159 0 4.47443 0 3.83523C0 3.26705 0.213068 2.69886 0.639205 2.2017L2.2017 0.639205C2.62784 0.213068 3.19602 0 3.83523 0C4.40341 0 4.97159 0.213068 5.39773 0.639205L12.5 7.74148L19.6023 0.639205C20.0284 0.213068 20.5256 0 21.1648 0C21.733 0 22.3011 0.213068 22.7983 0.639205L24.3608 2.2017C24.7869 2.69886 25 3.26705 25 3.83523C25 4.47443 24.7869 4.97159 24.3608 5.39773L17.2585 12.5Z" fill="#347809"/>
</svg>
