<svg width="166" height="166" viewBox="0 0 166 166" fill="none" xmlns="http://www.w3.org/2000/svg">
<g id="Group 6809">
<g id="Ellipse 17" filter="url(#filter0_d_190_4624)">
<circle cx="83" cy="73" r="73" fill="#00B207"/>
</g>
<path id="sentiment_satisfied" d="M104.713 66.529C103.438 67.8042 101.902 68.4377 100.076 68.4377C98.2498 68.4377 96.7137 67.8042 95.4385 66.529C94.1632 65.2537 93.5298 63.7177 93.5298 61.8916C93.5298 60.0654 94.1632 58.5294 95.4385 57.2541C96.7137 55.9789 98.2498 55.3455 100.076 55.3455C101.902 55.3455 103.438 55.9789 104.713 57.2541C105.989 58.5294 106.622 60.0654 106.622 61.8916C106.622 63.7177 105.989 65.2537 104.713 66.529ZM71.8316 66.529C70.5564 67.8042 69.0203 68.4377 67.1942 68.4377C65.368 68.4377 63.832 67.8042 62.5568 66.529C61.2815 65.2537 60.6481 63.7177 60.6481 61.8916C60.6481 60.0654 61.2815 58.5294 62.5568 57.2541C63.832 55.9789 65.368 55.3455 67.1942 55.3455C69.0203 55.3455 70.5564 55.9789 71.8316 57.2541C73.1068 58.5294 73.7403 60.0654 73.7403 61.8916C73.7403 63.7177 73.1068 65.2537 71.8316 66.529ZM97.8532 94.5386C93.5925 97.4943 88.8576 98.9707 83.635 98.9707C78.4125 98.9707 73.6776 97.4943 69.4168 94.5386C65.3558 91.7215 62.3607 88.0549 60.4252 83.5298H67.1468C68.8942 86.3825 71.1949 88.6516 74.0452 90.3306C76.9809 92.0598 80.1807 92.9246 83.635 92.9246C87.0893 92.9246 90.2892 92.0598 93.2249 90.3306C96.0752 88.6516 98.3759 86.3825 100.123 83.5298H106.845C104.909 88.0549 101.914 91.7215 97.8532 94.5386ZM83.635 120.109C77.2021 120.109 71.1632 118.889 65.5133 116.451C59.8538 114.009 54.9357 110.697 50.7546 106.516C46.5734 102.334 43.2616 97.4163 40.8194 91.7568C38.3815 86.1069 37.1611 80.068 37.1611 73.635C37.1611 67.2021 38.3815 61.1632 40.8194 55.5133C43.2616 49.8538 46.5734 44.9357 50.7546 40.7546C54.9357 36.5734 59.8538 33.2616 65.5133 30.8194C71.1632 28.3815 77.2021 27.1611 83.635 27.1611C90.068 27.1611 96.1069 28.3815 101.757 30.8194C107.416 33.2616 112.334 36.5734 116.516 40.7546C120.697 44.9357 124.009 49.8538 126.451 55.5133C128.889 61.1632 130.109 67.2021 130.109 73.635C130.109 80.068 128.889 86.1069 126.451 91.7568C124.009 97.4163 120.697 102.334 116.516 106.516C112.334 110.697 107.416 114.009 101.757 116.451C96.1069 118.889 90.068 120.109 83.635 120.109ZM83.635 111.714C94.2557 111.714 103.27 108.023 110.646 100.646C118.023 93.2696 121.714 84.2557 121.714 73.635C121.714 63.0144 118.023 54.0005 110.646 46.6238C103.27 39.2471 94.2557 35.5559 83.635 35.5559C73.0144 35.5559 64.0005 39.2471 56.6238 46.6238C49.2471 54.0005 45.5559 63.0144 45.5559 73.635C45.5559 84.2557 49.2471 93.2696 56.6238 100.646C64.0005 108.023 73.0144 111.714 83.635 111.714Z" fill="white" stroke="#00B207"/>
</g>
<defs>
<filter id="filter0_d_190_4624" x="0" y="0" width="166" height="166" filterUnits="userSpaceOnUse" color-interpolation-filters="sRGB">
<feFlood flood-opacity="0" result="BackgroundImageFix"/>
<feColorMatrix in="SourceAlpha" type="matrix" values="0 0 0 0 0 0 0 0 0 0 0 0 0 0 0 0 0 0 127 0" result="hardAlpha"/>
<feOffset dy="10"/>
<feGaussianBlur stdDeviation="5"/>
<feComposite in2="hardAlpha" operator="out"/>
<feColorMatrix type="matrix" values="0 0 0 0 0.203922 0 0 0 0 0.658824 0 0 0 0 0.32549 0 0 0 0.35 0"/>
<feBlend mode="normal" in2="BackgroundImageFix" result="effect1_dropShadow_190_4624"/>
<feBlend mode="normal" in="SourceGraphic" in2="effect1_dropShadow_190_4624" result="shape"/>
</filter>
</defs>
</svg>
