<svg width="253" height="45" viewBox="0 0 253 45" fill="none" xmlns="http://www.w3.org/2000/svg">
<path d="M24 0L32.1581 13.8069L48 17.1885L37.2 29.1032L38.8328 45L24 38.5569L9.16718 45L10.8 29.1032L0 17.1885L15.8419 13.8069L24 0Z" fill="#DFB300"/>
<path d="M77.5 0L85.4881 13.8069L101 17.1885L90.425 29.1032L92.0238 45L77.5 38.5569L62.9762 45L64.575 29.1032L54 17.1885L69.5119 13.8069L77.5 0Z" fill="#DFB300"/>
<path d="M128 0L136.158 13.8069L152 17.1885L141.2 29.1032L142.833 45L128 38.5569L113.167 45L114.8 29.1032L104 17.1885L119.842 13.8069L128 0Z" fill="#DFB300"/>
<path d="M178.5 0L186.488 13.8069L202 17.1885L191.425 29.1032L193.024 45L178.5 38.5569L163.976 45L165.575 29.1032L155 17.1885L170.512 13.8069L178.5 0Z" fill="#DFB300"/>
<path d="M229 0L237.158 13.8069L253 17.1885L242.2 29.1032L243.833 45L229 38.5569L214.167 45L215.8 29.1032L205 17.1885L220.842 13.8069L229 0Z" fill="#626262"/>
</svg>
