<svg width="157" height="161" viewBox="0 0 157 161" fill="none" xmlns="http://www.w3.org/2000/svg">
<g filter="url(#filter0_d_1262_5435)">
<rect x="30" y="20" width="96.7603" height="101.003" rx="48.3801" fill="#F9A000" fill-opacity="0.82"/>
</g>
<mask id="mask0_1262_5435" style="mask-type:alpha" maskUnits="userSpaceOnUse" x="38" y="37" width="80" height="68">
<rect x="38.5918" y="37" width="79" height="68" fill="#D9D9D9"/>
</mask>
<g mask="url(#mask0_1262_5435)">
<path d="M78.0916 96.5C76.2812 96.5 74.7314 95.9451 73.4422 94.8354C72.1529 93.7257 71.5083 92.3917 71.5083 90.8333C71.5083 89.275 72.1529 87.941 73.4422 86.8312C74.7314 85.7215 76.2812 85.1667 78.0916 85.1667C79.9021 85.1667 81.4519 85.7215 82.7411 86.8312C84.0304 87.941 84.675 89.275 84.675 90.8333C84.675 92.3917 84.0304 93.7257 82.7411 94.8354C81.4519 95.9451 79.9021 96.5 78.0916 96.5ZM71.5083 79.5V45.5H84.675V79.5H71.5083Z" fill="white"/>
</g>
<defs>
<filter id="filter0_d_1262_5435" x="0" y="0" width="156.76" height="161.003" filterUnits="userSpaceOnUse" color-interpolation-filters="sRGB">
<feFlood flood-opacity="0" result="BackgroundImageFix"/>
<feColorMatrix in="SourceAlpha" type="matrix" values="0 0 0 0 0 0 0 0 0 0 0 0 0 0 0 0 0 0 127 0" result="hardAlpha"/>
<feOffset dy="10"/>
<feGaussianBlur stdDeviation="15"/>
<feColorMatrix type="matrix" values="0 0 0 0 0.976471 0 0 0 0 0.639216 0 0 0 0 0.0470588 0 0 0 0.38 0"/>
<feBlend mode="normal" in2="BackgroundImageFix" result="effect1_dropShadow_1262_5435"/>
<feBlend mode="normal" in="SourceGraphic" in2="effect1_dropShadow_1262_5435" result="shape"/>
</filter>
</defs>
</svg>
