<svg width="104" height="20" viewBox="0 0 104 20" fill="none" xmlns="http://www.w3.org/2000/svg">
<path d="M10.3445 14.9017L14.2852 17.3979C14.7889 17.7167 15.4139 17.2423 15.2645 16.6542L14.1264 12.176C14.0943 12.0513 14.098 11.92 14.1371 11.7973C14.1763 11.6746 14.2492 11.5654 14.3477 11.4823L17.8814 8.54167C18.3452 8.15542 18.1064 7.3848 17.5095 7.34605L12.8952 7.04605C12.7709 7.03723 12.6517 6.99331 12.5515 6.9194C12.4513 6.84549 12.3741 6.74462 12.3289 6.62855L10.6077 2.2948C10.5608 2.17163 10.4776 2.06563 10.3691 1.99083C10.2606 1.91603 10.1319 1.87598 10.0002 1.87598C9.86838 1.87598 9.73972 1.91603 9.63122 1.99083C9.52273 2.06563 9.43953 2.17163 9.39266 2.2948L7.67141 6.62855C7.62636 6.74474 7.54921 6.84574 7.44895 6.91977C7.3487 6.99379 7.22947 7.03781 7.10516 7.04667L2.49079 7.34667C1.89454 7.3848 1.65454 8.15542 2.11891 8.54167L5.65266 11.4829C5.75098 11.566 5.82389 11.675 5.86303 11.7976C5.90216 11.9202 5.90594 12.0514 5.87391 12.176L4.81891 16.3292C4.63954 17.0348 5.39016 17.6042 5.99391 17.221L9.65641 14.9017C9.75935 14.8362 9.87881 14.8015 10.0008 14.8015C10.1228 14.8015 10.2422 14.8362 10.3452 14.9017H10.3445Z" fill="#FF8A00"/>
<path d="M31.3445 14.9017L35.2852 17.3979C35.7889 17.7167 36.4139 17.2423 36.2645 16.6542L35.1264 12.176C35.0943 12.0513 35.098 11.92 35.1371 11.7973C35.1763 11.6746 35.2492 11.5654 35.3477 11.4823L38.8814 8.54167C39.3452 8.15542 39.1064 7.3848 38.5095 7.34605L33.8952 7.04605C33.7709 7.03723 33.6517 6.99331 33.5515 6.9194C33.4513 6.84549 33.3741 6.74462 33.3289 6.62855L31.6077 2.2948C31.5608 2.17163 31.4776 2.06563 31.3691 1.99083C31.2606 1.91603 31.1319 1.87598 31.0002 1.87598C30.8684 1.87598 30.7397 1.91603 30.6312 1.99083C30.5227 2.06563 30.4395 2.17163 30.3927 2.2948L28.6714 6.62855C28.6264 6.74474 28.5492 6.84574 28.449 6.91977C28.3487 6.99379 28.2295 7.03781 28.1052 7.04667L23.4908 7.34667C22.8945 7.3848 22.6545 8.15542 23.1189 8.54167L26.6527 11.4829C26.751 11.566 26.8239 11.675 26.863 11.7976C26.9022 11.9202 26.9059 12.0514 26.8739 12.176L25.8189 16.3292C25.6395 17.0348 26.3902 17.6042 26.9939 17.221L30.6564 14.9017C30.7594 14.8362 30.8788 14.8015 31.0008 14.8015C31.1228 14.8015 31.2422 14.8362 31.3452 14.9017H31.3445Z" fill="#FF8A00"/>
<path d="M52.3445 14.9017L56.2852 17.3979C56.7889 17.7167 57.4139 17.2423 57.2645 16.6542L56.1264 12.176C56.0943 12.0513 56.098 11.92 56.1371 11.7973C56.1763 11.6746 56.2492 11.5654 56.3477 11.4823L59.8814 8.54167C60.3452 8.15542 60.1064 7.3848 59.5095 7.34605L54.8952 7.04605C54.7709 7.03723 54.6517 6.99331 54.5515 6.9194C54.4513 6.84549 54.3741 6.74462 54.3289 6.62855L52.6077 2.2948C52.5608 2.17163 52.4776 2.06563 52.3691 1.99083C52.2606 1.91603 52.1319 1.87598 52.0002 1.87598C51.8684 1.87598 51.7397 1.91603 51.6312 1.99083C51.5227 2.06563 51.4395 2.17163 51.3927 2.2948L49.6714 6.62855C49.6264 6.74474 49.5492 6.84574 49.449 6.91977C49.3487 6.99379 49.2295 7.03781 49.1052 7.04667L44.4908 7.34667C43.8945 7.3848 43.6545 8.15542 44.1189 8.54167L47.6527 11.4829C47.751 11.566 47.8239 11.675 47.863 11.7976C47.9022 11.9202 47.9059 12.0514 47.8739 12.176L46.8189 16.3292C46.6395 17.0348 47.3902 17.6042 47.9939 17.221L51.6564 14.9017C51.7594 14.8362 51.8788 14.8015 52.0008 14.8015C52.1228 14.8015 52.2422 14.8362 52.3452 14.9017H52.3445Z" fill="#FF8A00"/>
<path d="M73.3445 14.9017L77.2852 17.3979C77.7889 17.7167 78.4139 17.2423 78.2645 16.6542L77.1264 12.176C77.0943 12.0513 77.098 11.92 77.1371 11.7973C77.1763 11.6746 77.2492 11.5654 77.3477 11.4823L80.8814 8.54167C81.3452 8.15542 81.1064 7.3848 80.5095 7.34605L75.8952 7.04605C75.7709 7.03723 75.6517 6.99331 75.5515 6.9194C75.4513 6.84549 75.3741 6.74462 75.3289 6.62855L73.6077 2.2948C73.5608 2.17163 73.4776 2.06563 73.3691 1.99083C73.2606 1.91603 73.1319 1.87598 73.0002 1.87598C72.8684 1.87598 72.7397 1.91603 72.6312 1.99083C72.5227 2.06563 72.4395 2.17163 72.3927 2.2948L70.6714 6.62855C70.6264 6.74474 70.5492 6.84574 70.449 6.91977C70.3487 6.99379 70.2295 7.03781 70.1052 7.04667L65.4908 7.34667C64.8945 7.3848 64.6545 8.15542 65.1189 8.54167L68.6527 11.4829C68.751 11.566 68.8239 11.675 68.863 11.7976C68.9022 11.9202 68.9059 12.0514 68.8739 12.176L67.8189 16.3292C67.6395 17.0348 68.3902 17.6042 68.9939 17.221L72.6564 14.9017C72.7594 14.8362 72.8788 14.8015 73.0008 14.8015C73.1228 14.8015 73.2422 14.8362 73.3452 14.9017H73.3445Z" fill="#FF8A00"/>
<path d="M94.3445 14.9017L98.2852 17.3979C98.7889 17.7167 99.4139 17.2423 99.2645 16.6542L98.1264 12.176C98.0943 12.0513 98.098 11.92 98.1371 11.7973C98.1763 11.6746 98.2492 11.5654 98.3477 11.4823L101.881 8.54167C102.345 8.15542 102.106 7.3848 101.51 7.34605L96.8952 7.04605C96.7709 7.03723 96.6517 6.99331 96.5515 6.9194C96.4513 6.84549 96.3741 6.74462 96.3289 6.62855L94.6077 2.2948C94.5608 2.17163 94.4776 2.06563 94.3691 1.99083C94.2606 1.91603 94.1319 1.87598 94.0002 1.87598C93.8684 1.87598 93.7397 1.91603 93.6312 1.99083C93.5227 2.06563 93.4395 2.17163 93.3927 2.2948L91.6714 6.62855C91.6264 6.74474 91.5492 6.84574 91.449 6.91977C91.3487 6.99379 91.2295 7.03781 91.1052 7.04667L86.4908 7.34667C85.8945 7.3848 85.6545 8.15542 86.1189 8.54167L89.6527 11.4829C89.751 11.566 89.8239 11.675 89.863 11.7976C89.9022 11.9202 89.9059 12.0514 89.8739 12.176L88.8189 16.3292C88.6395 17.0348 89.3902 17.6042 89.9939 17.221L93.6564 14.9017C93.7594 14.8362 93.8788 14.8015 94.0008 14.8015C94.1228 14.8015 94.2422 14.8362 94.3452 14.9017H94.3445Z" fill="#FF8A00"/>
</svg>
